{"title":"Vedalam 2015 Tamil Movies DVDRip XviD New Source +Sample ~ ☻rDX☻","uid":12959685,"size":746518606,"categoryP":"video","categoryS":"movies","magnet":"?xt=urn:btih:c18a3278b6b0353a7fe737e6afff5b39f4b55746&amp;dn=Vedalam+2015+Tamil+Movies+DVDRip+XviD+New+Source+%2BSample+%7E+%E2%98%BBrDX%E2%98%BB&amp;tr=udp%3A%2F%2Ftracker.leechers-paradise.org%3A6969&amp;tr=udp%3A%2F%2Fzer0day.ch%3A1337&amp;tr=udp%3A%2F%2Fopen.demonii.com%3A1337&amp;tr=udp%3A%2F%2Ftracker.coppersurfer.tk%3A6969&amp;tr=udp%3A%2F%2Fexodus.desync.com%3A6969","seeders":2,"leechers":2,"uploader":"basicssom","files":2,"time":1449834638,"description":"----------------------------------------------------------------\r\nVedalam 2015 Tamil Movies DVDRip XviD AAC New Source with Sample ~ ☻rDX☻\r\n\r\nSCREEN SHOTS &amp; POSTER:\r\n  \nhttp://doctorhosts.com/2015/12/Vedalam/11.html  \nhttp://doctorhosts.com/2015/12/Vedalam/1.html  \nhttp://doctorhosts.com/2015/12/Vedalam/2.html  \nhttp://doctorhosts.com/2015/12/Vedalam/3.html  \nhttp://doctorhosts.com/2015/12/Vedalam/4.html  \nhttp://doctorhosts.com/2015/12/Vedalam/5.html  \nhttp://doctorhosts.com/2015/12/Vedalam/6.html  \nhttp://doctorhosts.com/2015/12/Vedalam/7.html  \nhttp://doctorhosts.com/2015/12/Vedalam/8.html  \nhttp://doctorhosts.com/2015/12/Vedalam/9.html  \nhttp://doctorhosts.com/2015/12/Vedalam/10.html\r\n\r\nFormat                                   : Matroska\r\nFormat version                           : Version 4 / Version 2\r\nFile size                                : 707 MiB\r\nDuration                                 : 2h 34mn\r\nOverall bit rate                         : 640 Kbps\r\nMovie name                               : Vedalam 2015 Tamil Movies DVDRip XviD AAC New Source ~ rDX ~\r\n\r\nVideo\r\nID                                       : 1\r\nFormat                                   : AVC\r\nFormat/Info                              : Advanced Video Codec\r\nFormat profile                           :   \r\nFormat settings, CABAC                   : Yes\r\nFormat settings, ReFrames                : 4 frames\r\nCodec ID                                 : V_MPEG4/ISO/AVC\r\nDuration                                 : 2h 34mn\r\nBit rate                                 : 541 Kbps\r\nWidth                                    : 640 pixels\r\nHeight                                   : 272 pixels\r\nDisplay aspect ratio                     : 2.35:1\r\nFrame rate mode                          : Constant\r\nFrame rate                               : 50.000 fps\r\nColor space                              : YUV\r\nChroma subsampling                       : 4:2:0\r\nBit depth                                : 8 bits\r\nScan type                                : Progressive\r\nBits/(Pixel*Frame)                       : 0.062\r\nStream size                              : 587 MiB (83%)\r\nTitle                                    : ~ rDX ~\r\nWriting library                          : XviD\r\nLanguage                                 : Tamil\r\nDefault                                  : Yes\r\nForced                                   : Yes\r\n\r\nAudio\r\nID                                       : 2\r\nFormat                                   : MPEG Audio\r\nFormat version                           : Version 1\r\nFormat profile                           : Layer 3\r\nMode                                     : Joint stereo\r\nMode extension                           : MS Stereo\r\nCodec ID                                 : A_MPEG/L3\r\nCodec ID/Hint                            : MP3\r\nDuration                                 : 2h 34mn\r\nBit rate mode                            : Constant\r\nBit rate                                 : 96.0 Kbps\r\nChannel(s)                               : 2 channels\r\nSampling rate                            : 48.0 KHz\r\nCompression mode                         : Lossy\r\nStream size                              : 106 MiB (15%)\r\nTitle                                    : ~ rDX ~\r\nWriting library                          : LAME3.97\r\nLanguage                                 : Tamil\r\nDefault                                  : Yes\r\nForced                                   : Yes\r\n\r\nIMDB                                     \r\nwww.imdb.com/title/tt5178278/","torrent":{"xt":"urn:btih:c18a3278b6b0353a7fe737e6afff5b39f4b55746","amp;dn":"Vedalam+2015+Tamil+Movies+DVDRip+XviD+New+Source+%2BSample+%7E+%E2%98%BBrDX%E2%98%BB","amp;tr":["udp%3A%2F%2Ftracker.leechers-paradise.org%3A6969","udp%3A%2F%2Fzer0day.ch%3A1337","udp%3A%2F%2Fopen.demonii.com%3A1337","udp%3A%2F%2Ftracker.coppersurfer.tk%3A6969","udp%3A%2F%2Fexodus.desync.com%3A6969"],"infoHash":"c18a3278b6b0353a7fe737e6afff5b39f4b55746","infoHashBuffer":{"type":"Buffer","data":[193,138,50,120,182,176,53,58,127,231,55,230,175,255,91,57,244,181,87,70]},"announce":[],"urlList":[]}}